RBDS001runT45_grf
version=1
nRows=15
nColumns=19
inDegrees=no
endheader
time	ground_force_r_vx	ground_force_r_vy	ground_force_r_vz	ground_force_r_px	ground_force_r_py	ground_force_r_pz	ground_force_r_mx	ground_force_r_my	ground_force_r_mz	ground_force_l_vx	ground_force_l_vy	ground_force_l_vz	ground_force_l_px	ground_force_l_py	ground_force_l_pz	ground_force_l_mx	ground_force_l_my	ground_force_l_mz
     14.99900000	    -79.45969704	    201.34218094	     14.52423857	      2.63287737	      0.00000000	      1.05250473	      0.00000000	     -1.23970950	     -0.00000000	      0.00000000	      0.00000000	      0.00000000	      0.00000000	      0.00000000	      0.00000000	      0.00000000	      0.00000000	      0.00000000
     15.00000000	    -84.90250283	    234.91219596	     15.06459614	      2.63074179	      0.00000000	      1.05132932	      0.00000000	     -0.78141249	     -0.00000000	      0.00000000	      0.00000000	      0.00000000	      0.00000000	      0.00000000	      0.00000000	      0.00000000	      0.00000000	      0.00000000
     15.00100000	    -90.29462337	    268.18664525	     15.62835486	      2.62858740	      0.00000000	      1.05016198	      0.00000000	     -0.31045248	     -0.00000000	      0.00000000	      0.00000000	      0.00000000	      0.00000000	      0.00000000	      0.00000000	      0.00000000	      0.00000000	      0.00000000
     15.00200000	    -95.68674391	    301.46109455	     16.19211359	      2.62643301	      0.00000000	      1.04899464	      0.00000000	      0.16050752	     -0.00000000	      0.00000000	      0.00000000	      0.00000000	      0.00000000	      0.00000000	      0.00000000	      0.00000000	      0.00000000	      0.00000000
     15.00300000	   -101.07886445	    334.73554385	     16.75587231	      2.62427861	      0.00000000	      1.04782731	      0.00000000	      0.63146752	     -0.00000000	      0.00000000	      0.00000000	      0.00000000	      0.00000000	      0.00000000	      0.00000000	      0.00000000	      0.00000000	      0.00000000
     15.00400000	   -106.36431198	    367.61471469	     17.35171468	      2.62209690	      0.00000000	      1.04667143	      0.00000000	      1.10795980	     -0.00000000	      0.00000000	      0.00000000	      0.00000000	      0.00000000	      0.00000000	      0.00000000	      0.00000000	      0.00000000	      0.00000000
     15.00500000	   -111.59642302	    400.29624630	     17.96359889	      2.61990154	      0.00000000	      1.04552129	      0.00000000	      1.58721822	     -0.00000000	      0.00000000	      0.00000000	      0.00000000	      0.00000000	      0.00000000	      0.00000000	      0.00000000	      0.00000000	      0.00000000
     15.00600000	   -116.82853406	    432.97777791	     18.57548310	      2.61770618	      0.00000000	      1.04437115	      0.00000000	      2.06647664	     -0.00000000	      0.00000000	      0.00000000	      0.00000000	      0.00000000	      0.00000000	      0.00000000	      0.00000000	      0.00000000	      0.00000000
     15.00700000	   -121.97230424	    465.36846849	     19.20920629	      2.61548969	      0.00000000	      1.04322977	      0.00000000	      2.54687116	     -0.00000000	      0.00000000	      0.00000000	      0.00000000	      0.00000000	      0.00000000	      0.00000000	      0.00000000	      0.00000000	      0.00000000
     15.00800000	   -126.93939270	    497.17747699	     19.88660746	      2.61323096	      0.00000000	      1.04210593	      0.00000000	      3.02953786	     -0.00000000	      0.00000000	      0.00000000	      0.00000000	      0.00000000	      0.00000000	      0.00000000	      0.00000000	      0.00000000	      0.00000000
     15.00900000	   -131.90648117	    528.98648549	     20.56400863	      2.61097224	      0.00000000	      1.04098208	      0.00000000	      3.51220456	     -0.00000000	      0.00000000	      0.00000000	      0.00000000	      0.00000000	      0.00000000	      0.00000000	      0.00000000	      0.00000000	      0.00000000
     15.01000000	   -136.87356964	    560.79549400	     21.24140980	      2.60871351	      0.00000000	      1.03985824	      0.00000000	      3.99487126	     -0.00000000	      0.00000000	      0.00000000	      0.00000000	      0.00000000	      0.00000000	      0.00000000	      0.00000000	      0.00000000	      0.00000000
     15.01100000	   -141.47801208	    591.47603557	     21.99218666	      2.60636995	      0.00000000	      1.03876972	      0.00000000	      4.47539863	     -0.00000000	      0.00000000	      0.00000000	      0.00000000	      0.00000000	      0.00000000	      0.00000000	      0.00000000	      0.00000000	      0.00000000
     15.01200000	   -146.08245452	    622.15657714	     22.74296352	      2.60402639	      0.00000000	      1.03768119	      0.00000000	      4.95592600	     -0.00000000	      0.00000000	      0.00000000	      0.00000000	      0.00000000	      0.00000000	      0.00000000	      0.00000000	      0.00000000	      0.00000000
     15.01300000	   -150.68689697	    652.83711870	     23.49374037	      2.60168283	      0.00000000	      1.03659267	      0.00000000	      5.43645337	     -0.00000000	      0.00000000	      0.00000000	      0.00000000	      0.00000000	      0.00000000	      0.00000000	      0.00000000	      0.00000000	      0.00000000
